<svg xmlns="http://www.w3.org/2000/svg" version="1.1" xmlns:xlink="http://www.w3.org/1999/xlink" width="2000" height="1500" viewBox="0 0 2000 1500"><rect width="2000" height="1500" x="0" y="0" id="background" stroke="transparent" fill="#000000"></rect><svg xml:space="preserve" width="1500" height="1125" data-version="2" data-id="lg_eUfPPKHmptA2chByQG" viewBox="0 0 779 158" x="250" y="187.5"><rect width="100%" height="100%" fill="transparent"></rect><g transform="translate(164.403 61.563)"><linearGradient id="a" x1="-.009" x2="11.045" y1="0" y2="0" gradientUnits="objectBoundingBox"><stop offset="0%" stop-color="#0f3054"></stop><stop offset="49.8%" stop-color="#3b8dcb"></stop><stop offset="100%" stop-color="#0f3054"></stop></linearGradient><path fill="url(#a)" d="M163.27 383.24v40.4q0 1.2-.5 1.66-.5.46-1.71.46h-8.52q-1.2 0-1.71-.46-.5-.46-.5-1.66v-44.57q0-4 .75-6.34.74-2.34 2.88-3.37 2.14-1.02 6.26-1.02h10.61q20.9 0 20.9 16.06 0 4.88-1.64 8.01-1.64 3.12-4.08 4.86-2.44 1.74-4.81 2.62v.2q2.69 1.77 5.11 4.63 2.42 2.86 4.38 6.21 1.97 3.34 3.33 6.6t1.88 5.83q.24 1.2.02 1.8-.22.6-1.38.6h-9.25q-1.04 0-1.82-.44t-1.42-2.04q-3.05-7.65-7.01-12.48-3.97-4.82-7.65-7.74-2.36-1.88-2.36-2.69 0-.64.76-1.76.48-.68 1.4-1.64.92-.96 1.6-1.44t1.1-.6q.42-.12 1.3-.12 2.97 0 4.95-2.04t1.98-6.45q0-4.16-2.1-6.1-2.1-1.95-5.79-1.95h-2.4q-2.64 0-3.6 1.12-.96 1.13-.96 3.85" transform="translate(-173.206 -397.05)"></path></g><g transform="translate(213.221 61.563)"><linearGradient id="b" x1="-1.205" x2="12.187" y1="0" y2="0" gradientUnits="objectBoundingBox"><stop offset="0%" stop-color="#0f3054"></stop><stop offset="49.8%" stop-color="#3b8dcb"></stop><stop offset="100%" stop-color="#0f3054"></stop></linearGradient><path fill="url(#b)" d="M233.86 425.76h-20.14q-4.13 0-6.27-1.04-2.14-1.04-2.88-3.4-.74-2.37-.74-6.29v-35.96q0-4 .74-6.34t2.88-3.37q2.14-1.02 6.27-1.02h18.81q.97 0 1.45.32 1.04.72 2.16 1.73 1.12 1 2.36 2.4.4.52.4.84 0 .36-.4.8-1.24 1.4-2.36 2.4-1.12 1-2.16 1.72-.56.32-1.45.32h-11.21q-2.64 0-3.6 1.12-.96 1.13-.96 3.85v7.77h14.37q.96 0 1.44.32 1.05.72 2.17 1.72 1.12 1 2.36 2.4.4.52.4.84 0 .36-.4.8-1.24 1.4-2.36 2.4-1.12 1.01-2.17 1.73-.56.32-1.44.32h-14.37v8.08q0 2.69.96 3.85.96 1.16 3.6 1.16h12.54q.96 0 1.44.32 1.04.72 2.16 1.72t2.36 2.4q.4.52.4.84 0 .36-.4.81-1.24 1.4-2.36 2.4-1.12 1-2.16 1.72-.56.32-1.44.32" transform="translate(-222.025 -397.05)"></path></g><g transform="translate(256.944 61.603)"><linearGradient id="c" x1="-2.098" x2="10.597" y1="0" y2="0" gradientUnits="objectBoundingBox"><stop offset="0%" stop-color="#0f3054"></stop><stop offset="49.8%" stop-color="#3b8dcb"></stop><stop offset="100%" stop-color="#0f3054"></stop></linearGradient><path fill="url(#c)" d="M264.17 426.72q-5.09 0-8.43-.92-3.35-.92-5.37-2.3t-3.1-2.75q-.36-.52-.64-1t-.4-1.08q-.16-.8-.32-2.1t-.04-3.02q.04-.72.28-1 .28-.32.92-.48 1.16-.28 3.02-.5 1.86-.22 2.66-.22.85 0 1.37.32.52.32 1.24 1.08.8.84 2.76 2.14 1.96 1.3 6.05 1.3 3.92 0 5.92-1.64t2-4.57q0-1.56-.94-2.94t-3.42-2.76q-2.48-1.38-7.09-2.9-7.61-2.57-10.97-6.37-3.36-3.8-3.36-10.57 0-5.61 2.72-9.37 2.72-3.76 7.53-5.69 4.8-1.92 11.09-1.92 4.84 0 8.03 1.14 3.18 1.14 4.94 2.57 1.76 1.42 2.28 2.3.32.52.42.78.1.26.14.7.12 1.24.08 2.76-.04 1.52-.28 3.45-.12.64-.44.88-.28.2-.88.2-3.88.08-6-.4-.84-.2-1.12-.4-.28-.2-.72-.64-.65-.77-2.03-1.79t-4.42-1.02q-4.21 0-5.97 1.9-1.76 1.91-1.76 4.27 0 2.8 2.6 4.38 2.61 1.58 8.21 3.59 4.69 1.64 8.05 3.56 3.36 1.92 5.14 4.92 1.79 3.01 1.79 7.93 0 6.13-2.83 10.17-2.82 4.05-7.68 6.03-4.87 1.98-11.03 1.98" transform="translate(-265.747 -397.09)"></path></g><g transform="translate(310.156 61.343)"><linearGradient id="d" x1="-2.46" x2="7.414" y1="0" y2="0" gradientUnits="objectBoundingBox"><stop offset="0%" stop-color="#0f3054"></stop><stop offset="49.8%" stop-color="#3b8dcb"></stop><stop offset="100%" stop-color="#0f3054"></stop></linearGradient><path fill="url(#d)" d="M318.94 426.72q-7.53 0-12.83-1.96-5.31-1.96-8.09-6.89-2.78-4.92-2.78-13.81v-29.31q0-1.16.4-1.76 1.8-2.64 5.04-5.57.6-.48 1.04-.48.48 0 1 .48 1.76 1.52 2.97 2.91 1.2 1.38 2.08 2.66.4.64.4 1.76v27.31q0 5.72 1.22 8.7 1.22 2.99 3.62 4.07 2.41 1.08 5.93 1.08 3.6 0 6-1.08 2.41-1.08 3.61-4.07 1.2-2.98 1.2-8.7v-27.31q0-1.16.4-1.76 1.8-2.64 5.04-5.57.61-.48 1.05-.48.48 0 1 .48 1.76 1.52 2.96 2.91 1.2 1.38 2.08 2.66.4.64.4 1.76v29.31q0 8.89-3.04 13.81-3.04 4.93-8.39 6.89-5.34 1.96-12.31 1.96" transform="translate(-318.96 -396.83)"></path></g><g transform="translate(378.501 61.563)"><linearGradient id="e" x1="-2.651" x2="4.681" y1="0" y2="0" gradientUnits="objectBoundingBox"><stop offset="0%" stop-color="#0f3054"></stop><stop offset="49.8%" stop-color="#3b8dcb"></stop><stop offset="100%" stop-color="#0f3054"></stop></linearGradient><path fill="url(#e)" d="M387.21 402.78h.32q.56-2.17 1.22-4.27.66-2.1 1.62-4.7.84-2.32 2.04-5.35 1.2-3.02 2.54-6.14 1.34-3.13 2.63-5.81 1.28-2.68 2.32-4.28 1.28-1.96 2.78-2.93 1.5-.96 4.42-.96h5.25q2.08 0 3.5.62t2.03 2.95q.44 1.72.84 5.04.4 3.33.68 9.21.28 5.89.44 15.12.16 9.22.16 22.8 0 .72-.48 1.2t-1.16.48h-9.13q-.68 0-1.16-.48-.48-.48-.48-1.24V406.1q0-7.37-.04-12.21-.04-4.85-.1-7.71-.06-2.86-.18-4.42h-.25q-2.12 4.88-4.52 10.87-2.4 5.98-4.68 12.33-2.29 6.35-4.09 12.39-.52 1.8-1.3 2.5t-3.54.7h-4.61q-2.36 0-3.14-.6-.78-.6-1.34-2.6-1.32-4.56-2.92-9.65-1.61-5.08-3.31-9.99-1.7-4.9-3.28-9.05-1.58-4.14-2.82-6.9h-.24q-.32 4.72-.56 11.49-.24 6.76-.38 14.69-.15 7.93-.19 16.18 0 .72-.48 1.18-.48.46-1.16.46h-8.2q-.69 0-1.17-.48t-.48-1.24q.04-21.34.86-34.08.83-12.73 1.79-17.05.64-2.84 2.26-3.71 1.62-.86 3.7-.86h6.49q2.2 0 3.22.78t2.5 3.03q.88 1.32 2.11 3.96 1.22 2.64 2.54 5.87 1.32 3.22 2.5 6.36 1.18 3.15 1.94 5.47.8 2.36 1.48 4.58.68 2.22 1.21 4.39" transform="translate(-387.305 -397.05)"></path></g><g transform="translate(441.806 61.563)"><linearGradient id="f" x1="-6.307" x2="7.085" y1="0" y2="0" gradientUnits="objectBoundingBox"><stop offset="0%" stop-color="#0f3054"></stop><stop offset="49.8%" stop-color="#3b8dcb"></stop><stop offset="100%" stop-color="#0f3054"></stop></linearGradient><path fill="url(#f)" d="M462.44 425.76H442.3q-4.12 0-6.27-1.04-2.14-1.04-2.88-3.4-.74-2.37-.74-6.29v-35.96q0-4 .74-6.34t2.88-3.37q2.15-1.02 6.27-1.02h18.82q.96 0 1.44.32 1.04.72 2.16 1.73 1.12 1 2.36 2.4.4.52.4.84 0 .36-.4.8-1.24 1.4-2.36 2.4-1.12 1-2.16 1.72-.56.32-1.44.32h-11.21q-2.65 0-3.61 1.12-.96 1.13-.96 3.85v7.77h14.38q.96 0 1.44.32 1.04.72 2.16 1.72t2.36 2.4q.4.52.4.84 0 .36-.4.8-1.24 1.4-2.36 2.4-1.12 1.01-2.16 1.73-.56.32-1.44.32h-14.38v8.08q0 2.69.96 3.85.96 1.16 3.61 1.16h12.53q.96 0 1.44.32 1.04.72 2.16 1.72t2.36 2.4q.41.52.41.84 0 .36-.41.81-1.24 1.4-2.36 2.4-1.12 1-2.16 1.72-.56.32-1.44.32" transform="translate(-450.61 -397.05)"></path></g><g transform="translate(523.321 61.563)"><linearGradient id="g" x1="-4.522" x2="2.809" y1="0" y2="0" gradientUnits="objectBoundingBox"><stop offset="0%" stop-color="#0f3054"></stop><stop offset="49.8%" stop-color="#3b8dcb"></stop><stop offset="100%" stop-color="#0f3054"></stop></linearGradient><path fill="url(#g)" d="M532.03 402.78h.32q.56-2.17 1.22-4.27.66-2.1 1.62-4.7.84-2.32 2.04-5.35 1.2-3.02 2.54-6.14 1.35-3.13 2.63-5.81 1.28-2.68 2.32-4.28 1.28-1.96 2.78-2.93 1.5-.96 4.43-.96h5.24q2.08 0 3.5.62 1.43.62 2.03 2.95.44 1.72.84 5.04.4 3.33.68 9.21.28 5.89.44 15.12.16 9.22.16 22.8 0 .72-.48 1.2t-1.16.48h-9.13q-.68 0-1.16-.48-.48-.48-.48-1.24V406.1q0-7.37-.04-12.21-.04-4.85-.1-7.71-.06-2.86-.18-4.42h-.24q-2.13 4.88-4.53 10.87-2.4 5.98-4.68 12.33-2.29 6.35-4.09 12.39-.52 1.8-1.3 2.5t-3.54.7h-4.61q-2.36 0-3.14-.6-.78-.6-1.34-2.6-1.32-4.56-2.92-9.65-1.6-5.08-3.31-9.99-1.7-4.9-3.28-9.05-1.58-4.14-2.82-6.9h-.24q-.32 4.72-.56 11.49-.24 6.76-.38 14.69t-.18 16.18q0 .72-.48 1.18-.48.46-1.17.46h-8.2q-.68 0-1.16-.48-.49-.48-.49-1.24.04-21.34.87-34.08.82-12.73 1.78-17.05.64-2.84 2.26-3.71 1.62-.86 3.7-.86h6.49q2.2 0 3.22.78t2.51 3.03q.88 1.32 2.1 3.96 1.22 2.64 2.54 5.87 1.32 3.22 2.5 6.36 1.18 3.15 1.94 5.47.8 2.36 1.49 4.58.68 2.22 1.2 4.39" transform="translate(-532.125 -397.05)"></path></g><g transform="translate(590.688 61.563)"><linearGradient id="h" x1="-7.454" x2="2.792" y1="0" y2="0" gradientUnits="objectBoundingBox"><stop offset="0%" stop-color="#0f3054"></stop><stop offset="49.8%" stop-color="#3b8dcb"></stop><stop offset="100%" stop-color="#0f3054"></stop></linearGradient><path fill="url(#h)" d="M608.14 371.51q2.2 3.08 4.51 7.94 2.3 4.87 4.46 10.67 2.16 5.81 3.9 11.88 1.75 6.06 2.87 11.67 1.12 5.6 1.28 9.97.04 2.12-1.92 2.12h-9.69q-1.89 0-1.97-1.88-.16-4.49-1.44-10.89h-21.86q-1.12 6.24-1.28 10.89-.08 1.88-2.04 1.88h-9.49q-.72 0-1.2-.42t-.44-1.46q.2-4.45 1.3-10.11 1.1-5.67 2.86-11.75 1.76-6.09 3.93-11.92 2.16-5.82 4.48-10.67 2.32-4.84 4.52-7.92 1.17-1.65 2.47-2.41 1.3-.76 3.22-.76h5.77q1.96 0 3.28.76 1.32.76 2.48 2.41m-8.81 9.49h-.24q-2.64 4.2-4.84 10.05-2.2 5.84-3.81 12.01h17.38q-1.68-6.17-3.88-12.01-2.21-5.85-4.61-10.05" transform="translate(-599.492 -397.05)"></path></g><g transform="translate(649.246 60.863)"><linearGradient id="i" x1="-8.798" x2="1.906" y1="0" y2="0" gradientUnits="objectBoundingBox"><stop offset="0%" stop-color="#0f3054"></stop><stop offset="49.8%" stop-color="#3b8dcb"></stop><stop offset="100%" stop-color="#0f3054"></stop></linearGradient><path fill="url(#i)" d="M647.5 401.42v22.22q0 1.2-.5 1.66-.5.46-1.7.46h-8.53q-1.2 0-1.7-.46t-.5-1.66v-48.89q0-1.16.4-1.76 1.8-2.64 5.04-5.57.6-.48 1.04-.48.48 0 1 .48 1.77 1.52 2.97 2.91 1.2 1.38 2.08 2.66.4.64.4 1.76v16.62h.92q5.01 0 8.13-1.39 3.12-1.38 4.8-3.72 1.68-2.34 2.31-5.22.62-2.89.62-5.89v-.4q0-1.16.4-1.76 1.8-2.64 5.04-5.57.6-.48 1.04-.48.48 0 1 .48 1.76 1.52 2.97 2.91 1.2 1.38 2.08 2.66.4.64.4 1.76v.4q0 3.24-.64 6.71-.64 3.46-2.26 6.54-1.63 3.09-4.57 5.27-2.94 2.18-7.59 2.86v.28q4.17 1.32 7.43 4.39 3.26 3.06 5.65 6.98 2.38 3.93 3.9 7.89 1.52 3.96 2.16 7.09.32 1.48 0 2.04t-1.52.56h-9.81q-2.04 0-2.4-1.88-.6-3.05-2.34-6.87-1.75-3.82-4.35-7.39-2.6-3.56-5.78-5.88-3.19-2.32-6.67-2.32z" transform="translate(-658.05 -396.35)"></path></g><g transform="translate(699.056 61.563)"><linearGradient id="j" x1="-12.049" x2="1.344" y1="0" y2="0" gradientUnits="objectBoundingBox"><stop offset="0%" stop-color="#0f3054"></stop><stop offset="49.8%" stop-color="#3b8dcb"></stop><stop offset="100%" stop-color="#0f3054"></stop></linearGradient><path fill="url(#j)" d="M719.69 425.76h-20.14q-4.12 0-6.27-1.04-2.14-1.04-2.88-3.4-.74-2.37-.74-6.29v-35.96q0-4 .74-6.34t2.88-3.37q2.15-1.02 6.27-1.02h18.82q.96 0 1.44.32 1.04.72 2.16 1.73 1.12 1 2.36 2.4.4.52.4.84 0 .36-.4.8-1.24 1.4-2.36 2.4-1.12 1-2.16 1.72-.56.32-1.44.32h-11.21q-2.64 0-3.61 1.12-.96 1.13-.96 3.85v7.77h14.38q.96 0 1.44.32 1.04.72 2.16 1.72t2.36 2.4q.4.52.4.84 0 .36-.4.8-1.24 1.4-2.36 2.4-1.12 1.01-2.16 1.73-.56.32-1.44.32h-14.38v8.08q0 2.69.96 3.85.97 1.16 3.61 1.16h12.53q.96 0 1.44.32 1.04.72 2.16 1.72t2.37 2.4q.4.52.4.84 0 .36-.4.81-1.25 1.4-2.37 2.4t-2.16 1.72q-.56.32-1.44.32" transform="translate(-707.86 -397.05)"></path></g><g transform="translate(748.533 61.563)"><linearGradient id="k" x1="-10.929" x2=".125" y1="0" y2="0" gradientUnits="objectBoundingBox"><stop offset="0%" stop-color="#0f3054"></stop><stop offset="49.8%" stop-color="#3b8dcb"></stop><stop offset="100%" stop-color="#0f3054"></stop></linearGradient><path fill="url(#k)" d="M747.4 383.24v40.4q0 1.2-.5 1.66-.5.46-1.71.46h-8.52q-1.2 0-1.71-.46-.5-.46-.5-1.66v-44.57q0-4 .74-6.34.75-2.34 2.89-3.37 2.14-1.02 6.26-1.02h10.61q20.9 0 20.9 16.06 0 4.88-1.64 8.01-1.64 3.12-4.08 4.86-2.44 1.74-4.81 2.62v.2q2.69 1.77 5.11 4.63 2.42 2.86 4.38 6.21 1.97 3.34 3.33 6.6t1.88 5.83q.24 1.2.02 1.8-.22.6-1.38.6h-9.25q-1.04 0-1.82-.44t-1.42-2.04q-3.05-7.65-7.01-12.48-3.97-4.82-7.65-7.74-2.36-1.88-2.36-2.69 0-.64.76-1.76.48-.68 1.4-1.64.92-.96 1.6-1.44t1.1-.6q.42-.12 1.3-.12 2.97 0 4.95-2.04t1.98-6.45q0-4.16-2.1-6.1-2.1-1.95-5.79-1.95h-2.4q-2.64 0-3.6 1.12-.96 1.13-.96 3.85" transform="translate(-757.336 -397.05)"></path></g><path fill="#fff" d="M271.116 146.133h-2.44v-11.16l-7-13.16 2.47-.42 6.13 12h-.72l6.07-12 2.5.42-7.01 13.12zm16.66.19q-3.84 0-5.58-2.45-1.73-2.45-1.73-7.17t1.73-7.17q1.74-2.45 5.58-2.45 3.85 0 5.58 2.45 1.74 2.45 1.74 7.17t-1.74 7.17q-1.73 2.45-5.58 2.45m0-2q2.82 0 3.85-2.04 1.03-2.04 1.03-5.58t-1.03-5.58q-1.03-2.04-3.85-2.04-2.81 0-3.84 2.04-1.03 2.04-1.03 5.58t1.03 5.58q1.03 2.04 3.84 2.04m17.43 2.09q-1.91 0-3.15-.69-1.25-.7-1.85-2.13-.6-1.42-.6-3.6v-12.62h2.44v12.72q0 2.27.74 3.29.74 1.03 2.57 1.03 1.14 0 2.63-.28 1.48-.29 3.43-1.53l-.71 1.28v-16.51h2.44v18.76h-1.83l-.34-1.22q-1.91.91-3.15 1.21-1.25.29-2.62.29m16.09-.28h-2.44v-18.76h1.83l.42 1.98q.74-.51 1.83-1.02 1.08-.5 2.26-.86 1.18-.35 2.19-.39v2.33q-1.31 0-2.59.28-1.27.29-2.27.73-1 .43-1.52.91l.29-1.09zm31.42.19q-2 0-3.67-.71-1.66-.7-2.89-2.2-1.23-1.49-1.9-3.84-.68-2.36-.68-5.65 0-4.51.97-7.27.97-2.77 2.95-4.03 1.98-1.27 4.99-1.27 1.41 0 2.88.33 1.46.32 3.02 1.1v5.08l-2.07.19v-4.81l.44 1.06q-.76-.42-1.82-.67-1.06-.26-2.24-.26-2.15 0-3.65.85-1.49.84-2.26 3.14-.77 2.29-.77 6.62 0 3.77.85 6.03.86 2.27 2.41 3.28 1.55 1.01 3.59 1.01 1.24 0 2.53-.27 1.28-.26 2.75-.97l.76 1.85q-1.68.8-3.19 1.1-1.51.31-3 .31m14.36 0q-2.63 0-4.32-1.34-1.7-1.33-1.7-3.98 0-1.27.69-2.63.68-1.37 2.23-2.3 1.56-.93 4.13-.93.82-.02 2.12.11 1.3.14 2.73.59l-.99.61v-1.92q0-2.19-.48-3.36-.49-1.17-1.37-1.63-.89-.46-2.09-.46-1.16 0-2.58.27-1.42.27-2.83.72l-.47-1.88q1.48-.5 3.04-.8 1.56-.31 2.95-.31 2.04 0 3.44.66t2.12 2.21q.71 1.55.71 4.24v11.94h-1.83l-.59-2.16.46.69q-.36.3-1.21.7-.85.39-1.94.67-1.1.29-2.22.29m.38-1.95q1.41 0 2.78-.44 1.37-.45 2.08-1.04l-.35 1.1v-7.42l.69 1.1q-1.13-.46-2.06-.6-.93-.14-1.69-.14-2.54 0-3.97.99-1.44.99-1.44 2.91 0 1.91 1.04 2.73 1.03.81 2.92.81m14.81 1.76h-2.43v-18.76h1.83l.41 1.98q.75-.51 1.83-1.02 1.09-.5 2.27-.86 1.18-.35 2.19-.39v2.33q-1.32 0-2.59.28-1.28.29-2.28.73-1 .43-1.51.91l.28-1.09zm16.72.19q-3.67 0-5.7-2.28-2.03-2.27-2.03-7.36 0-2.47.56-4.28.57-1.81 1.59-2.99 1.01-1.18 2.4-1.76 1.39-.57 3.05-.57 2.11 0 3.63.95 1.51.94 2.32 2.63.81 1.7.81 3.96 0 .42-.04 1.08-.03.66-.11 1.5h-12.63l.88-1.03q-.11 3.39.65 5.14.76 1.75 2.05 2.38 1.3.63 2.78.63 1.58 0 2.85-.35 1.27-.36 2.47-.91l.82 1.73q-1.26.71-2.93 1.12-1.66.41-3.42.41m5.22-10.84-.87.86v-1.07q.15-2.82-1.01-4.5-1.16-1.69-3.45-1.69-2.63 0-3.99 1.93-1.36 1.92-1.17 5.21l-.88-.74zm12.88 10.84q-3.68 0-5.71-2.28-2.03-2.27-2.03-7.36 0-2.47.57-4.28.56-1.81 1.58-2.99 1.01-1.18 2.4-1.76 1.4-.57 3.05-.57 2.12 0 3.63.95 1.51.94 2.32 2.63.81 1.7.81 3.96 0 .42-.04 1.08-.03.66-.11 1.5h-12.63l.88-1.03q-.11 3.39.65 5.14.76 1.75 2.05 2.38 1.3.63 2.78.63 1.59 0 2.85-.35 1.27-.36 2.47-.91l.82 1.73q-1.26.71-2.93 1.12-1.66.41-3.41.41m5.21-10.84-.87.86v-1.07q.15-2.82-1.01-4.5-1.16-1.69-3.45-1.69-2.63 0-3.99 1.93-1.36 1.92-1.17 5.21l-.88-.74zm8.5 10.65h-2.44v-18.76h1.83l.42 1.98q.74-.51 1.82-1.02 1.09-.5 2.27-.86 1.18-.35 2.19-.39v2.33q-1.31 0-2.59.28-1.28.29-2.28.73-1 .43-1.51.91l.29-1.09zm28.54.19q-1.79 0-3.55-.39-1.76-.39-3.34-1.1l.63-2q1.01.48 2.52.97 1.51.5 3.82.5 2.49 0 3.85-1.29 1.37-1.28 1.37-3.64 0-1.77-1.02-2.81t-3.67-1.92l-2.34-.78q-2.71-.89-3.93-2.38-1.23-1.48-1.23-3.81 0-3.04 2.03-4.68 2.02-1.64 5.62-1.64 1.85 0 3.39.3 1.55.29 2.99.88l-.45 1.96q-1.39-.53-2.94-.82-1.54-.3-2.85-.3-2.69 0-4.02 1-1.33 1-1.33 3.25 0 1.56.77 2.43.77.88 2.73 1.58l2.17.79q1.9.68 3.37 1.45 1.47.77 2.31 2.05.83 1.28.83 3.48 0 3.24-2.04 5.08-2.05 1.84-5.69 1.84m17.67 0q-2.61 0-3.9-1.53-1.3-1.52-1.3-4.91v-11.54l.86.93h-3.77v-1.9h3.85l-.94.86.56-6.19h1.88v6.19l-.85-.86h6.72v1.9h-6.72l.85-.93v11.58q0 2.47.71 3.44.7.96 2.51.96.69 0 1.4-.1.71-.09 1.27-.26l.28 1.9q-.87.23-1.75.34-.88.12-1.66.12m11.75 0q-2.63 0-4.32-1.34-1.69-1.33-1.69-3.98 0-1.27.68-2.63.69-1.37 2.24-2.3 1.55-.93 4.12-.93.82-.02 2.12.11 1.31.14 2.74.59l-.99.61v-1.92q0-2.19-.49-3.36-.48-1.17-1.37-1.63-.89-.46-2.08-.46-1.17 0-2.59.27-1.41.27-2.82.72l-.48-1.88q1.49-.5 3.05-.8 1.56-.31 2.95-.31 2.04 0 3.44.66t2.11 2.21q.71 1.55.71 4.24v11.94h-1.82l-.59-2.16.45.69q-.36.3-1.21.7-.84.39-1.94.67-1.09.29-2.22.29m.38-1.95q1.41 0 2.78-.44 1.38-.45 2.08-1.04l-.34 1.1v-7.42l.68 1.1q-1.12-.46-2.05-.6-.94-.14-1.7-.14-2.53 0-3.97.99-1.44.99-1.44 2.91 0 1.91 1.04 2.73 1.04.81 2.92.81m14.82 1.76h-2.44v-18.76h1.83l.42 1.98q.74-.51 1.83-1.02 1.08-.5 2.26-.86 1.18-.35 2.19-.39v2.33q-1.31 0-2.59.28-1.27.29-2.27.73-1 .43-1.52.91l.29-1.09zm15.42.19q-2.6 0-3.9-1.53-1.29-1.52-1.29-4.91v-11.54l.85.93h-3.77v-1.9h3.85l-.93.86.55-6.19h1.88v6.19l-.85-.86h6.72v1.9h-6.72l.85-.93v11.58q0 2.47.71 3.44.7.96 2.51.96.69 0 1.4-.1.71-.09 1.27-.26l.28 1.9q-.87.23-1.75.34-.88.12-1.66.12m12.13 0q-1.58 0-3.25-.44-1.68-.44-3.01-1.26l.76-1.88q.99.61 2.48 1.09 1.48.49 2.91.49 1.85 0 2.85-.71 1-.7 1-2.53 0-1.12-.51-1.87-.5-.74-1.93-1.18l-2.86-.89q-2.07-.65-3.25-1.78-1.18-1.14-1.18-3.23 0-1.83.86-2.93.87-1.11 2.28-1.61 1.41-.51 3.03-.51 1.31 0 2.63.3 1.33.29 2.43.81l-.72 1.86q-.88-.38-2.03-.67-1.15-.3-2.18-.3-1.85 0-2.86.71-1.01.7-1.01 2.28 0 1.16.64 1.78.64.62 2.09 1.1l2.8.89q1.31.42 2.25 1.11.94.68 1.45 1.67.5.99.5 2.35 0 1.98-.86 3.15-.87 1.17-2.27 1.68-1.4.52-3.04.52m25.88-.19h-2.43v-24.45h2.43v11.52l-.85-.9h12.76l-.86.9v-11.52h2.44v24.45h-2.44v-12.72l.86.91h-12.76l.85-.91zm26.21.19q-3.68 0-5.71-2.28-2.02-2.27-2.02-7.36 0-2.47.56-4.28t1.58-2.99q1.02-1.18 2.41-1.76 1.39-.57 3.04-.57 2.12 0 3.63.95 1.52.94 2.32 2.63.81 1.7.81 3.96 0 .42-.03 1.08-.04.66-.12 1.5h-12.62l.87-1.03q-.11 3.39.65 5.14.76 1.75 2.06 2.38 1.29.63 2.78.63 1.58 0 2.84-.35 1.27-.36 2.47-.91l.82 1.73q-1.26.71-2.92 1.12-1.67.41-3.42.41m5.21-10.84-.87.86v-1.07q.15-2.82-1.01-4.5-1.16-1.69-3.45-1.69-2.63 0-3.99 1.93-1.36 1.92-1.17 5.21l-.87-.74zm8.5 10.65h-2.44v-18.76h1.83l.42 1.98q.74-.51 1.83-1.02 1.08-.5 2.26-.86 1.18-.35 2.19-.39v2.33q-1.31 0-2.59.28-1.27.29-2.27.73-1 .43-1.52.91l.29-1.09zm16.72.19q-3.68 0-5.71-2.28-2.02-2.27-2.02-7.36 0-2.47.56-4.28t1.58-2.99q1.02-1.18 2.41-1.76 1.39-.57 3.04-.57 2.12 0 3.63.95 1.52.94 2.33 2.63.8 1.7.8 3.96 0 .42-.03 1.08-.04.66-.12 1.5h-12.62l.87-1.03q-.11 3.39.65 5.14.76 1.75 2.06 2.38 1.29.63 2.78.63 1.58 0 2.84-.35 1.27-.36 2.47-.91l.82 1.73q-1.26.71-2.92 1.12-1.67.41-3.42.41m5.22-10.84-.88.86v-1.07q.15-2.82-1.01-4.5-1.16-1.69-3.45-1.69-2.62 0-3.99 1.93-1.36 1.92-1.17 5.21l-.87-.74zM118.376 9.784v-3.46H76.704L19.572 1.586l-.392 4.738h-6.476v78.028L7.59 145.966l5.114.426v4.806h57.983l42.218 3.511.29-3.51h5.181V88.731l6.511-78.402zM22.691 5.268l12.8 1.056H22.606zm-11.42 137.579 1.433-17.283v17.402zM114.969 12.92v134.87H16.112V9.732h98.856zm3.408.29 2.83.239-2.83 34.07z"></path><path fill="#fff" d="M62.131 33.595a1.704 1.704 0 0 1-1.704 1.704H24.634a1.704 1.704 0 0 1 0-3.409h35.793a1.704 1.704 0 0 1 1.704 1.705m0 10.226a1.704 1.704 0 0 1-1.704 1.704H24.634a1.704 1.704 0 0 1 0-3.408h35.793a1.704 1.704 0 0 1 1.704 1.704m0 10.226a1.704 1.704 0 0 1-1.704 1.705H24.634a1.704 1.704 0 1 1 0-3.409h35.793a1.704 1.704 0 0 1 1.704 1.704m46.019 17.044a1.704 1.704 0 0 1-1.704 1.705H24.634a1.704 1.704 0 1 1 0-3.409h81.812a1.704 1.704 0 0 1 1.704 1.704m0 10.227a1.704 1.704 0 0 1-1.704 1.704H24.634a1.704 1.704 0 1 1 0-3.409h81.812a1.704 1.704 0 0 1 1.704 1.705m0 10.226a1.704 1.704 0 0 1-1.704 1.705H24.634a1.704 1.704 0 1 1 0-3.41h81.812a1.704 1.704 0 0 1 1.704 1.705m0 10.227a1.704 1.704 0 0 1-1.704 1.704H24.634a1.704 1.704 0 0 1 0-3.409h81.812a1.704 1.704 0 0 1 1.704 1.705m0 11.93a1.704 1.704 0 0 1-1.704 1.705H24.634a1.704 1.704 0 0 1 0-3.409h81.812a1.704 1.704 0 0 1 1.704 1.704m0 11.931a1.704 1.704 0 0 1-1.704 1.705H24.634a1.704 1.704 0 0 1 0-3.41h81.812a1.704 1.704 0 0 1 1.704 1.705m-34.088 11.931a1.704 1.704 0 0 1-1.704 1.704H24.634a1.704 1.704 0 0 1 0-3.408h47.724a1.704 1.704 0 0 1 1.704 1.704"></path><circle r="5.78" fill="#fff" transform="translate(87.697 27.289)scale(1.7044)"></circle><path fill="#fff" d="M103.02 46.991c-.597-7.465-7.261-8.76-15.34-8.76s-14.726 1.295-15.322 8.76v8.76h5.47V49.19s0-2.199 1.109-2.199v8.76h17.52v-8.76c1.092 0 1.092 2.199 1.092 2.199v6.562h5.488zm-15.34 6.58-1.687-2.182 1.704-10.96 1.67 10.96z"></path></svg></svg>